<?xml version="1.0" encoding="UTF-8"?>
<svg id="Capa_2" data-name="Capa 2" xmlns="http://www.w3.org/2000/svg" viewBox="0 0 101.63 31.98">
  <defs>
    <style>
      .cls-1 {
        fill: #fff;
      }
    </style>
  </defs>
  <path class="cls-1" d="M29.21,9.84c.04-.46-.24-5.06-2.6-7.51C24.17-.2,20.97-.02,20.53.01c-.67.04-1.79.18-3.01.79-1.18.59-1.98,1.37-2.47,1.97-.2.25-.58.25-.78,0-.5-.6-1.3-1.39-2.47-1.97C10.57.19,9.44.05,8.77.01c-.44-.03-3.64-.21-6.07,2.32C.33,4.78.06,9.38.1,9.84c-.22,2.76-.15,5.49,1.21,10,.62,2.07,3.22,7.02,6.26,9.49,1.14.93,2.18,1.72,3.1,2.3.6.38,1.35.48,2.01.21.21-.09.42-.21.62-.39.43-.38.61-.85.69-1.23.07-.33.05-.68-.04-1.01-.34-1.31-.69-2.62-1.04-3.93-.36-1.14-.15-2.3.58-2.99.32-.3.74-.44,1.16-.44s.84.15,1.16.44c.5.47.75,1.15.75,1.9,0,.35-.06.72-.17,1.09-.34,1.31-.69,2.62-1.04,3.93-.09.33-.11.67-.04,1.01.08.38.26.84.69,1.23.2.18.41.3.62.39.66.27,1.41.17,2.01-.21.93-.57,1.96-1.37,3.1-2.3,3.04-2.47,5.64-7.42,6.26-9.49,1.36-4.51,1.43-7.23,1.21-10ZM18.64,15.17c-1.38,1.15-3.53,1.26-3.99,1.26-.53,0-2.61-.12-3.99-1.26-1.73-1.45-1.95-3.43-1.98-4-.03-.55.39-1,.94-1.03.54-.03,1,.39,1.03.94.01.26.13,1.63,1.28,2.58,1.08.91,2.7.83,2.73.83.03,0,1.64.07,2.72-.83,1.15-.96,1.26-2.32,1.28-2.58.02-.55.49-.97,1.03-.94.55.03.97.49.94,1.03-.03.57-.25,2.55-1.98,4Z"/>
  <g>
    <g>
      <path class="cls-1" d="M36.82,17.78V5.54h4.29c3.62,0,6.11,2.49,6.11,6.14s-2.44,6.09-5.99,6.09h-4.4ZM38.97,7.52v8.29h2.06c2.44,0,3.93-1.57,3.93-4.12s-1.52-4.17-4.05-4.17h-1.94Z"/>
      <path class="cls-1" d="M48.42,13.64c0-2.6,1.69-4.39,4.12-4.39s4.05,1.66,4.05,4.24v.62l-6.23.02c.15,1.46.92,2.19,2.28,2.19,1.12,0,1.86-.44,2.09-1.22h1.89c-.35,1.81-1.86,2.9-4.02,2.9-2.46,0-4.19-1.79-4.19-4.35ZM50.42,12.82h4.15c0-1.14-.79-1.89-2.01-1.89s-1.94.65-2.14,1.89Z"/>
      <path class="cls-1" d="M58.24,17.78v-8.27h1.89l.17,1.07c.52-.84,1.52-1.32,2.65-1.32,2.08,0,3.15,1.29,3.15,3.43v5.09h-2.04v-4.6c0-1.39-.69-2.06-1.74-2.06-1.26,0-2.03.87-2.03,2.21v4.45h-2.04Z"/>
      <path class="cls-1" d="M68.87,17.78v-6.56h-1.59v-1.71h1.59v-2.58h2.04v2.58h1.61v1.71h-1.61v6.56h-2.04Z"/>
      <path class="cls-1" d="M77.36,9.26c2.26,0,3.8,1.26,4.02,3.25h-2.04c-.23-.94-.92-1.42-1.89-1.42-1.31,0-2.18.99-2.18,2.55s.8,2.53,2.11,2.53c1.02,0,1.74-.5,1.96-1.41h2.06c-.25,1.93-1.86,3.25-4.02,3.25-2.51,0-4.15-1.74-4.15-4.37s1.69-4.37,4.14-4.37Z"/>
      <path class="cls-1" d="M86.85,9.27c2.56,0,4.42,1.77,4.42,4.35s-1.86,4.35-4.42,4.35-4.42-1.77-4.42-4.35,1.86-4.35,4.42-4.35ZM86.85,16.16c1.41,0,2.38-1.02,2.38-2.53s-.97-2.53-2.38-2.53-2.38,1.02-2.38,2.53.97,2.53,2.38,2.53Z"/>
      <path class="cls-1" d="M92.89,17.78V5.32h2.04v5.39c.54-.92,1.64-1.47,2.9-1.47,2.36,0,3.8,1.84,3.8,4.45s-1.56,4.3-3.93,4.3c-1.24,0-2.29-.55-2.78-1.51l-.13,1.29h-1.89ZM97.28,16.12c1.44,0,2.29-1.04,2.29-2.51s-.85-2.53-2.29-2.53-2.33,1.04-2.33,2.53.92,2.51,2.33,2.51Z"/>
    </g>
    <g>
      <path class="cls-1" d="M36.82,25.97c0-2.22,1.39-3.73,3.43-3.73,1.55,0,2.78.94,3.07,2.37h-.78c-.3-1.04-1.19-1.68-2.32-1.68-1.58,0-2.64,1.21-2.64,3.04s1.06,3.03,2.64,3.03c1.14,0,2.05-.62,2.36-1.58h.78c-.33,1.36-1.59,2.28-3.15,2.28-2.02,0-3.39-1.5-3.39-3.72Z"/>
      <path class="cls-1" d="M44.45,29.59v-7.36h.7v7.36h-.7Z"/>
      <path class="cls-1" d="M46.63,24.7h.7v4.88h-.7v-4.88ZM47.29,24.14h-.57l.61-1.2h.74l-.78,1.2Z"/>
      <path class="cls-1" d="M48.78,29.59v-4.88h.61l.1.85c.32-.63.97-.98,1.68-.98,1.34,0,1.9.8,1.9,2.03v2.99h-.7v-2.84c0-1.14-.51-1.54-1.32-1.54-1,0-1.56.73-1.56,1.83v2.55h-.7Z"/>
      <path class="cls-1" d="M54.28,22.85c0-.28.23-.52.51-.52s.52.24.52.52-.24.51-.52.51-.51-.23-.51-.51ZM54.45,24.7h.7v4.88h-.7v-4.88Z"/>
      <path class="cls-1" d="M58.62,24.57c1.13,0,1.96.66,2.15,1.67h-.7c-.18-.68-.77-1.05-1.44-1.05-.99,0-1.69.76-1.69,1.96s.65,1.94,1.63,1.94c.73,0,1.31-.4,1.5-1.03h.71c-.23,1-1.1,1.66-2.21,1.66-1.38,0-2.32-1.02-2.32-2.55s.94-2.58,2.36-2.58Z"/>
      <path class="cls-1" d="M61.59,28.27c0-.9.69-1.46,1.83-1.55l1.61-.13v-.16c0-.96-.58-1.26-1.29-1.26-.85,0-1.35.38-1.35,1.04h-.64c0-.99.81-1.62,2.01-1.62,1.13,0,1.96.57,1.96,1.86v3.16h-.59l-.09-.86c-.3.62-.97.98-1.8.98-1.04,0-1.66-.59-1.66-1.44ZM65.04,27.37v-.26l-1.44.11c-.92.08-1.29.48-1.29,1.03,0,.6.44.9,1.11.9,1.03,0,1.62-.72,1.62-1.78Z"/>
      <path class="cls-1" d="M69.57,27.16c0-1.47.84-2.58,2.29-2.58.81,0,1.45.35,1.8,1.06v-3.4h.7v7.36h-.61l-.07-1c-.34.76-1.03,1.12-1.85,1.12-1.42,0-2.26-1.09-2.26-2.55ZM73.64,27.13c0-1.12-.63-1.94-1.7-1.94s-1.68.82-1.68,1.94.62,1.94,1.68,1.94,1.7-.81,1.7-1.94Z"/>
      <path class="cls-1" d="M75.46,27.15c0-1.52.95-2.57,2.34-2.57s2.22.94,2.22,2.32v.34h-3.89c.05,1.19.68,1.88,1.73,1.88.8,0,1.31-.34,1.49-.99h.67c-.26,1.03-1.02,1.58-2.17,1.58-1.43,0-2.39-1.03-2.39-2.56ZM76.16,26.73h3.17c0-.94-.61-1.56-1.52-1.56s-1.52.61-1.65,1.56Z"/>
      <path class="cls-1" d="M81.13,29.59v-4.88h.61l.1.85c.32-.63.97-.98,1.68-.98,1.34,0,1.9.8,1.9,2.03v2.99h-.7v-2.84c0-1.14-.51-1.54-1.32-1.54-1,0-1.56.73-1.56,1.83v2.55h-.7Z"/>
      <path class="cls-1" d="M87.24,29.59v-4.3h-.98v-.59h.98v-1.54h.69v1.54h.98v.59h-.98v4.3h-.69Z"/>
      <path class="cls-1" d="M89.48,28.27c0-.9.69-1.46,1.83-1.55l1.61-.13v-.16c0-.96-.58-1.26-1.29-1.26-.85,0-1.35.38-1.35,1.04h-.64c0-.99.81-1.62,2.01-1.62,1.13,0,1.96.57,1.96,1.86v3.16h-.59l-.09-.86c-.3.62-.97.98-1.8.98-1.04,0-1.66-.59-1.66-1.44ZM92.92,27.37v-.26l-1.44.11c-.92.08-1.29.48-1.29,1.03,0,.6.44.9,1.11.9,1.03,0,1.62-.72,1.62-1.78Z"/>
      <path class="cls-1" d="M95.02,29.59v-7.36h.7v7.36h-.7Z"/>
    </g>
  </g>
</svg>