<?xml version="1.0" encoding="UTF-8"?>
<svg id="Capa_2" data-name="Capa 2" xmlns="http://www.w3.org/2000/svg" viewBox="0 0 121.3 31.98">
  <defs>
    <style>
      .cls-1 {
        fill: #1057a2;
      }
    </style>
  </defs>
  <g id="Capa_1-2" data-name="Capa 1">
    <path class="cls-1" d="M29.21,9.84c.04-.46-.24-5.06-2.6-7.51C24.17-.2,20.97-.02,20.53.01c-.67.04-1.79.18-3.01.79-1.18.59-1.98,1.37-2.47,1.97-.2.25-.58.25-.78,0-.5-.6-1.3-1.39-2.47-1.97C10.56.19,9.44.05,8.77.01c-.44-.03-3.64-.21-6.07,2.32C.33,4.78.06,9.38.1,9.84c-.22,2.76-.15,5.49,1.21,10,.62,2.07,3.22,7.02,6.26,9.49,1.14.93,2.18,1.72,3.1,2.3.6.38,1.35.48,2.01.21.21-.09.42-.21.62-.39.43-.38.61-.85.69-1.23.07-.33.05-.68-.04-1.01-.34-1.31-.69-2.62-1.04-3.93-.36-1.14-.15-2.3.58-2.99.32-.3.74-.44,1.16-.44s.84.15,1.16.44c.5.47.75,1.15.75,1.9,0,.35-.06.72-.17,1.09-.34,1.31-.69,2.62-1.04,3.93-.09.33-.11.67-.04,1.01.08.38.26.84.69,1.23.2.18.41.3.62.39.66.27,1.41.17,2.01-.21.93-.57,1.96-1.37,3.1-2.3,3.04-2.47,5.64-7.42,6.26-9.49,1.36-4.51,1.43-7.23,1.21-10ZM18.64,15.17c-1.38,1.15-3.53,1.26-3.99,1.26-.53,0-2.61-.12-3.99-1.26-1.73-1.45-1.95-3.43-1.98-4-.03-.55.39-1,.94-1.03.54-.03,1,.39,1.03.94.01.26.13,1.63,1.28,2.58,1.08.91,2.7.83,2.73.83.03,0,1.64.07,2.72-.83,1.15-.96,1.26-2.32,1.28-2.58.02-.55.49-.97,1.03-.94.55.03.97.49.94,1.03-.03.57-.25,2.55-1.98,4Z"/>
    <g>
      <path class="cls-1" d="M36.92,23.77v-15.55h5.88c4.56,0,7.73,3.19,7.73,7.82s-3.09,7.73-7.52,7.73h-6.09ZM40.33,11.38v9.24h2.35c2.69,0,4.27-1.7,4.27-4.58s-1.66-4.66-4.48-4.66h-2.14Z"/>
      <path class="cls-1" d="M51.94,18.5c0-3.28,2.21-5.57,5.38-5.57s5.36,2.16,5.36,5.59v.82l-7.63.04c.19,1.39.97,2.04,2.4,2.04,1.22,0,2.08-.44,2.31-1.2h2.96c-.38,2.33-2.46,3.82-5.34,3.82-3.17,0-5.44-2.31-5.44-5.55ZM55.09,17.39h4.37c0-1.11-.82-1.83-2.12-1.83s-2,.57-2.25,1.83Z"/>
      <path class="cls-1" d="M64.59,23.77v-10.51h3.05l.21,1.09c.65-.9,1.85-1.43,3.21-1.43,2.5,0,3.95,1.6,3.95,4.35v6.49h-3.24v-5.71c0-1.32-.74-2.19-1.85-2.19-1.28,0-2.1.84-2.1,2.14v5.76h-3.24Z"/>
      <path class="cls-1" d="M78.32,23.77v-7.82h-2v-2.69h2v-3.26h3.24v3.26h2v2.69h-2v7.82h-3.24Z"/>
      <path class="cls-1" d="M89.71,12.93c3.11,0,5.17,1.7,5.38,4.45h-3.26c-.23-1.05-.88-1.55-2-1.55-1.37,0-2.25,1.03-2.25,2.65s.82,2.67,2.21,2.67c1.13,0,1.83-.53,2.04-1.55h3.26c-.21,2.65-2.35,4.45-5.29,4.45-3.32,0-5.46-2.21-5.46-5.57s2.23-5.55,5.38-5.55Z"/>
      <path class="cls-1" d="M102.08,12.95c3.34,0,5.78,2.23,5.78,5.55s-2.44,5.53-5.78,5.53-5.8-2.21-5.8-5.53,2.44-5.55,5.8-5.55ZM102.08,21.13c1.49,0,2.52-1.05,2.52-2.65s-1.03-2.63-2.52-2.63-2.54,1.05-2.54,2.63,1.03,2.65,2.54,2.65Z"/>
      <path class="cls-1" d="M109.73,23.77V7.93h3.24v6.56c.63-.95,2.02-1.58,3.53-1.58,2.94,0,4.81,2.29,4.81,5.71s-2.08,5.42-5.06,5.42c-1.47,0-2.73-.65-3.3-1.62l-.17,1.34h-3.05ZM115.55,21.08c1.53,0,2.5-1.07,2.5-2.63s-.97-2.63-2.5-2.63-2.56,1.05-2.56,2.63,1.05,2.63,2.56,2.63Z"/>
    </g>
  </g>
</svg>