<?xml version="1.0" encoding="UTF-8"?>
<svg id="Capa_2" data-name="Capa 2" xmlns="http://www.w3.org/2000/svg" viewBox="0 0 121.95 31.98">
  <defs>
    <style>
      .cls-1 {
        fill: #1057a2;
      }
    </style>
  </defs>
  <g id="Capa_1-2" data-name="Capa 1">
    <g>
      <path class="cls-1" d="M29.21,9.84c.04-.46-.24-5.06-2.6-7.51C24.17-.2,20.97-.02,20.53.01c-.67.04-1.79.18-3.01.79-1.18.59-1.98,1.37-2.47,1.97-.2.25-.58.25-.78,0-.5-.6-1.3-1.39-2.47-1.97C10.56.19,9.44.05,8.77.01c-.44-.03-3.64-.21-6.07,2.32C.33,4.78.06,9.38.1,9.84c-.22,2.76-.15,5.49,1.21,10,.62,2.07,3.22,7.02,6.26,9.49,1.14.93,2.18,1.72,3.1,2.3.6.38,1.35.48,2.01.21.21-.09.42-.21.62-.39.43-.38.61-.85.69-1.23.07-.33.05-.68-.04-1.01-.34-1.31-.69-2.62-1.04-3.93-.36-1.14-.15-2.3.58-2.99.32-.3.74-.44,1.16-.44s.84.15,1.16.44c.5.47.75,1.15.75,1.9,0,.35-.06.72-.17,1.09-.34,1.31-.69,2.62-1.04,3.93-.09.33-.11.67-.04,1.01.08.38.26.84.69,1.23.2.18.41.3.62.39.66.27,1.41.17,2.01-.21.93-.57,1.96-1.37,3.1-2.3,3.04-2.47,5.64-7.42,6.26-9.49,1.36-4.51,1.43-7.23,1.21-10ZM18.64,15.17c-1.38,1.15-3.53,1.26-3.99,1.26-.53,0-2.61-.12-3.99-1.26-1.73-1.45-1.95-3.43-1.98-4-.03-.55.39-1,.94-1.03.54-.03,1,.39,1.03.94.01.26.13,1.63,1.28,2.58,1.08.91,2.7.83,2.73.83.03,0,1.64.07,2.72-.83,1.15-.96,1.26-2.32,1.28-2.58.02-.55.49-.97,1.03-.94.55.03.97.49.94,1.03-.03.57-.25,2.55-1.98,4Z"/>
      <path class="cls-1" d="M37.29,23.98V7.99h5.6c4.72,0,7.98,3.26,7.98,8.03s-3.19,7.96-7.83,7.96h-5.75ZM40.09,10.58v10.83h2.69c3.19,0,5.14-2.06,5.14-5.38s-1.99-5.45-5.29-5.45h-2.54Z"/>
      <path class="cls-1" d="M52.44,18.58c0-3.39,2.21-5.73,5.38-5.73s5.29,2.17,5.29,5.53v.81l-8.14.02c.2,1.9,1.2,2.87,2.97,2.87,1.47,0,2.43-.57,2.73-1.6h2.47c-.46,2.36-2.43,3.78-5.25,3.78-3.22,0-5.47-2.34-5.47-5.69ZM55.05,17.51h5.42c0-1.49-1.03-2.47-2.62-2.47s-2.54.85-2.8,2.47Z"/>
      <path class="cls-1" d="M65.26,23.98v-10.81h2.47l.22,1.4c.68-1.09,1.99-1.73,3.46-1.73,2.71,0,4.11,1.68,4.11,4.48v6.65h-2.67v-6.02c0-1.82-.9-2.69-2.27-2.69-1.64,0-2.65,1.14-2.65,2.89v5.82h-2.67Z"/>
      <path class="cls-1" d="M79.15,23.98v-8.57h-2.08v-2.23h2.08v-3.37h2.67v3.37h2.1v2.23h-2.1v8.57h-2.67Z"/>
      <path class="cls-1" d="M90.24,12.85c2.95,0,4.97,1.64,5.25,4.24h-2.67c-.31-1.22-1.2-1.86-2.47-1.86-1.71,0-2.84,1.29-2.84,3.32s1.05,3.3,2.76,3.3c1.33,0,2.27-.66,2.56-1.84h2.69c-.33,2.52-2.43,4.24-5.25,4.24-3.28,0-5.42-2.27-5.42-5.71s2.21-5.71,5.4-5.71Z"/>
      <path class="cls-1" d="M102.64,12.87c3.35,0,5.77,2.32,5.77,5.69s-2.43,5.69-5.77,5.69-5.77-2.32-5.77-5.69,2.43-5.69,5.77-5.69ZM102.64,21.86c1.84,0,3.11-1.33,3.11-3.3s-1.27-3.3-3.11-3.3-3.11,1.33-3.11,3.3,1.27,3.3,3.11,3.3Z"/>
      <path class="cls-1" d="M110.53,23.98V7.71h2.67v7.04c.7-1.2,2.14-1.92,3.78-1.92,3.08,0,4.97,2.41,4.97,5.82s-2.03,5.62-5.14,5.62c-1.62,0-3-.72-3.63-1.97l-.18,1.68h-2.47ZM116.26,21.82c1.88,0,3-1.36,3-3.28s-1.12-3.3-3-3.3-3.04,1.36-3.04,3.3,1.2,3.28,3.04,3.28Z"/>
    </g>
  </g>
</svg>